<?xml version="1.0" standalone="no"?>
<!DOCTYPE svg PUBLIC "-//W3C//DTD SVG 20010904//EN"
 "http://www.w3.org/TR/2001/REC-SVG-20010904/DTD/svg10.dtd">
<svg version="1.0" xmlns="http://www.w3.org/2000/svg"
 width="512.000000pt" height="512.000000pt" viewBox="0 0 512.000000 512.000000"
 preserveAspectRatio="xMidYMid meet">

<g transform="translate(0.000000,512.000000) scale(0.100000,-0.100000)"
fill="#000000" stroke="none">
<path d="M2410 4899 c-1110 -65 -2028 -923 -2175 -2034 -19 -144 -22 -430 -5
-570 130 -1090 977 -1937 2065 -2065 140 -17 426 -14 570 5 771 102 1441 578
1790 1274 171 341 248 672 247 1061 -2 415 -105 804 -307 1156 -448 778 -1282
1226 -2185 1173z m-354 -729 c75 -37 175 -138 221 -225 117 -221 130 -503 33
-695 -39 -76 -88 -130 -151 -165 -47 -26 -64 -30 -129 -29 -62 0 -85 5 -135
30 -268 131 -406 601 -265 901 93 200 251 268 426 183z m1271 4 c138 -67 233
-285 219 -504 -17 -260 -149 -500 -321 -584 -50 -25 -73 -30 -135 -30 -65 -1
-82 3 -129 29 -162 89 -246 325 -207 582 27 179 99 327 208 429 119 113 240
138 365 78z m-2017 -1030 c108 -45 218 -179 267 -327 35 -108 39 -272 8 -356
-25 -67 -86 -138 -140 -162 -155 -71 -355 69 -448 314 -28 75 -31 92 -31 207
-1 117 1 129 27 185 67 143 183 194 317 139z m2700 -4 c162 -83 198 -363 78
-608 -47 -95 -154 -202 -231 -231 -108 -40 -191 -20 -262 61 -53 60 -76 124
-82 228 -12 194 87 416 230 514 96 66 185 78 267 36z m-1274 -260 c122 -31
230 -89 317 -170 97 -91 138 -154 207 -319 108 -259 143 -313 325 -502 147
-152 186 -211 215 -325 78 -304 -107 -584 -423 -640 -164 -30 -336 4 -609 118
-191 80 -256 77 -483 -17 -279 -116 -471 -139 -653 -79 -221 73 -354 253 -355
479 0 176 41 262 206 434 198 204 244 274 340 508 30 73 69 158 88 189 97 160
252 274 444 324 99 27 276 27 381 0z"/>
</g>
</svg>
